<!DOCTYPE svg PUBLIC "-//W3C//DTD SVG 1.1//EN" "http://www.w3.org/Graphics/SVG/1.1/DTD/svg11.dtd">
<!-- Uploaded to: ICON Repo, www.iconrepo.com, Transformed by: ICON Repo Mixer Tools -->
<svg fill="#ffffff" width="800px" height="800px" version="1.1" viewBox="144 144 512 512" xmlns="http://www.w3.org/2000/svg">
<g id="SVGRepo_bgCarrier" stroke-width="0"/>
<g id="SVGRepo_tracerCarrier" stroke-linecap="round" stroke-linejoin="round"/>
<g id="SVGRepo_iconCarrier"> <g> <path d="m162.91 619.79h474.17c4.0898 0 7.4102-3.3125 7.4102-7.4102 0-4.0938-3.3164-7.4102-7.4102-7.4102h-59.418v-353.18c0-0.27734-0.12891-0.51172-0.15625-0.78125 0.36719-2.5039-0.49219-5.0625-2.4805-6.7383l-74.016-62.312c-1.3711-1.1562-3.2969-1.7422-4.7695-1.7422h-263.02c-4.0898 0-7.4102 3.3125-7.4102 7.4102v417.35h-62.902c-4.0898 0-7.4102 3.3125-7.4102 7.4102 0.003906 4.0938 3.3203 7.4062 7.4102 7.4062zm340.74-377.26v-38.977l46.301 38.977zm-263.02-47.492h248.2v56.754c0 4.0938 3.3164 7.4102 7.4102 7.4102l66.609-0.003906v345.78h-322.22z"/> <path d="m328.79 269.22c-25.117 0-45.551 20.434-45.551 45.555 0 25.113 20.434 45.547 45.551 45.547 25.117 0 45.551-20.434 45.551-45.547 0-25.121-20.434-45.555-45.551-45.555zm0 76.281c-16.945 0-30.73-13.785-30.73-30.73 0-16.945 13.785-30.734 30.73-30.734 16.945 0 30.73 13.789 30.73 30.734 0 16.949-13.785 30.73-30.73 30.73z"/> <path d="m328.79 371.43c-25.117 0-45.551 20.434-45.551 45.547 0 25.121 20.434 45.555 45.551 45.555 25.117 0 45.551-20.434 45.551-45.555 0-25.113-20.434-45.547-45.551-45.547zm0 76.281c-16.945 0-30.73-13.789-30.73-30.734 0-16.945 13.785-30.73 30.73-30.73 16.945 0 30.73 13.785 30.73 30.73 0 16.945-13.785 30.734-30.73 30.734z"/> <path d="m328.79 473.64c-25.117 0-45.551 20.434-45.551 45.555 0 25.113 20.434 45.547 45.551 45.547 25.117 0 45.551-20.434 45.551-45.547 0-25.121-20.434-45.555-45.551-45.555zm0 76.281c-16.945 0-30.73-13.785-30.73-30.73 0-16.945 13.785-30.734 30.73-30.734 16.945 0 30.73 13.789 30.73 30.734 0 16.945-13.785 30.73-30.73 30.73z"/> <path d="m518.39 288.65h-106.75c-4.0898 0-7.4102 3.3125-7.4102 7.4102 0 4.0938 3.3164 7.4102 7.4102 7.4102l106.75-0.003906c4.0898 0 7.4102-3.3125 7.4102-7.4102-0.003907-4.0938-3.3203-7.4062-7.4102-7.4062z"/> <path d="m518.39 326.08h-106.75c-4.0898 0-7.4102 3.3125-7.4102 7.4102 0 4.0938 3.3164 7.4102 7.4102 7.4102l106.75-0.003906c4.0898 0 7.4102-3.3125 7.4102-7.4102-0.003907-4.0938-3.3203-7.4062-7.4102-7.4062z"/> <path d="m518.39 390.86h-106.75c-4.0898 0-7.4102 3.3125-7.4102 7.4102 0 4.0938 3.3164 7.4102 7.4102 7.4102h106.75c4.0898 0 7.4102-3.3125 7.4102-7.4102-0.003907-4.0938-3.3203-7.4102-7.4102-7.4102z"/> <path d="m518.39 428.29h-106.75c-4.0898 0-7.4102 3.3125-7.4102 7.4102 0 4.0938 3.3164 7.4102 7.4102 7.4102l106.75-0.003906c4.0898 0 7.4102-3.3125 7.4102-7.4102-0.003907-4.0938-3.3203-7.4062-7.4102-7.4062z"/> <path d="m518.39 503.56h-106.75c-4.0898 0-7.4102 3.3125-7.4102 7.4102 0 4.0938 3.3164 7.4102 7.4102 7.4102l106.75-0.003906c4.0898 0 7.4102-3.3125 7.4102-7.4102-0.003907-4.0938-3.3203-7.4062-7.4102-7.4062z"/> <path d="m518.39 540.99h-106.75c-4.0898 0-7.4102 3.3125-7.4102 7.4102 0 4.0938 3.3164 7.4102 7.4102 7.4102h106.75c4.0898 0 7.4102-3.3125 7.4102-7.4102-0.003907-4.0938-3.3203-7.4102-7.4102-7.4102z"/> <path d="m341.14 297.78-18.277 18.277-6.4141-6.4258c-2.8945-2.8945-7.5859-2.8945-10.48 0-2.8945 2.8867-2.8945 7.582-0.003906 10.477l11.656 11.664c1.3906 1.3906 3.2734 2.1719 5.2422 2.1719 1.9648 0 3.8477-0.78125 5.2383-2.1719l23.516-23.516c2.8945-2.8945 2.8945-7.582 0-10.477-2.8945-2.8945-7.582-2.8945-10.477 0z"/> <path d="m341.14 399.98-18.277 18.277-6.418-6.418c-2.8945-2.8945-7.582-2.8945-10.477 0s-2.8945 7.582 0 10.477l11.656 11.656c1.4453 1.4453 3.3438 2.1719 5.2383 2.1719s3.793-0.72266 5.2383-2.1719l23.516-23.516c2.8945-2.8945 2.8945-7.582 0-10.477-2.8945-2.8945-7.582-2.8945-10.477 0z"/> <path d="m322.86 520.47-6.4141-6.4258c-6.9258-6.9258-17.418 3.5352-10.484 10.477 21.73 20.133 11.879 20.531 45.652-11.852 2.8945-2.8945 2.8945-7.582 0-10.477-8.5117-8.5078-16.93 8.5977-28.754 18.277z"/> </g> </g>
</svg>